<?xml version="1.0" standalone="no"?>
<!DOCTYPE svg PUBLIC "-//W3C//DTD SVG 20010904//EN"
 "http://www.w3.org/TR/2001/REC-SVG-20010904/DTD/svg10.dtd">
<svg version="1.0" xmlns="http://www.w3.org/2000/svg"
 width="900.000000pt" height="900.000000pt" viewBox="0 0 900.000000 900.000000"
 preserveAspectRatio="xMidYMid meet">
<metadata>
Created by potrace 1.10, written by Peter Selinger 2001-2011
</metadata>
<g transform="translate(0.000000,900.000000) scale(0.100000,-0.100000)"
fill="#000000" stroke="none">
<path d="M4410 7064 c-184 -11 -368 -36 -490 -66 -25 -6 -63 -14 -85 -19 -77
-15 -204 -57 -335 -109 -52 -21 -218 -100 -250 -119 -8 -5 -22 -12 -30 -16
-34 -14 -280 -179 -313 -209 -12 -12 -44 -39 -72 -61 -94 -74 -273 -267 -320
-344 -5 -9 -22 -32 -36 -51 -31 -42 -137 -221 -161 -273 -10 -20 -25 -54 -34
-74 -10 -21 -21 -46 -25 -55 -16 -33 -63 -170 -92 -268 -30 -102 -77 -338 -77
-386 0 -78 -6 -86 -98 -132 -126 -63 -131 -66 -200 -128 -102 -92 -148 -160
-225 -337 -10 -21 -17 -49 -17 -63 0 -13 -6 -39 -13 -57 -8 -18 -20 -89 -27
-159 -19 -181 4 -380 65 -546 14 -38 23 -58 46 -102 5 -8 19 -35 31 -60 35
-69 211 -240 284 -278 163 -83 237 -97 455 -85 159 8 168 10 202 36 28 21 37
36 42 70 3 23 5 398 3 832 l-3 790 -30 45 c-22 33 -46 52 -89 73 l-58 28 6 37
c4 20 11 62 16 93 4 32 13 66 19 77 6 12 11 33 11 47 0 14 5 36 12 48 6 12 15
38 19 57 4 19 17 60 29 90 12 30 25 66 29 80 9 28 57 136 71 160 5 8 21 37 35
64 76 140 163 255 290 381 145 146 218 206 323 270 16 10 70 43 117 72 50 31
192 97 275 128 25 9 60 23 78 31 18 8 41 14 52 14 11 0 34 6 52 14 40 17 148
40 283 61 139 21 524 21 654 -1 53 -8 119 -22 147 -30 28 -8 60 -14 72 -14 12
0 36 -6 54 -14 18 -7 58 -21 88 -30 77 -24 181 -65 220 -87 8 -4 38 -20 65
-34 28 -14 64 -34 80 -45 17 -11 39 -24 50 -29 11 -5 37 -21 58 -35 20 -14 54
-38 75 -52 89 -61 311 -275 385 -371 26 -34 47 -64 47 -67 0 -2 17 -31 39 -63
21 -32 50 -80 65 -108 15 -27 31 -57 35 -65 5 -8 17 -33 26 -55 10 -22 24 -52
32 -67 7 -14 13 -34 13 -45 0 -10 7 -27 15 -37 8 -11 15 -28 15 -38 0 -9 6
-32 14 -50 23 -56 66 -218 85 -322 12 -68 4 -81 -61 -92 -45 -8 -56 -20 -79
-87 -17 -48 -18 -110 -19 -868 l0 -815 36 -35 35 -34 157 -3 c209 -5 279 6
402 61 128 57 280 192 350 312 166 282 196 663 76 990 -68 187 -207 344 -390
439 -38 20 -75 36 -82 36 -23 0 -44 43 -44 88 0 110 -61 363 -145 602 -16 43
-86 199 -105 230 -5 8 -19 35 -31 60 -12 25 -34 61 -48 80 -14 19 -30 43 -36
52 -70 116 -232 307 -348 409 -39 35 -79 71 -88 81 -29 27 -168 130 -238 175
-36 23 -127 71 -201 108 -74 37 -148 73 -163 81 -16 8 -35 14 -44 14 -8 0 -27
6 -41 14 -15 8 -54 22 -87 31 -33 10 -78 23 -100 30 -90 28 -315 71 -435 84
-114 12 -294 20 -370 15z"/>
<path d="M3138 5488 c-27 -22 -27 -26 -30 -148 l-3 -125 -112 -3 c-112 -3
-112 -3 -148 -36 l-35 -33 -2 -1004 c-2 -552 -3 -1063 -3 -1136 0 -114 3 -135
18 -150 16 -16 43 -18 296 -19 368 -1 541 -24 796 -102 155 -47 271 -113 373
-211 l63 -61 130 0 c80 0 139 5 152 12 12 6 42 32 67 57 67 68 92 87 172 127
104 52 167 77 238 94 19 5 53 13 75 19 192 49 360 65 660 63 263 -1 307 3 320
36 3 8 5 519 5 1134 0 1238 5 1145 -65 1188 -27 17 -50 20 -134 20 l-101 0 0
119 c0 114 -1 121 -26 150 -24 29 -31 31 -87 31 -34 0 -80 -5 -102 -11 -22 -5
-65 -14 -95 -19 -76 -12 -182 -40 -307 -80 -63 -20 -68 -22 -163 -60 -67 -27
-224 -104 -265 -131 -16 -10 -37 -22 -45 -26 -24 -11 -129 -92 -201 -155 -44
-38 -75 -58 -92 -58 -17 0 -57 28 -128 90 -57 50 -106 90 -111 90 -4 0 -26 13
-50 29 -226 152 -697 313 -963 328 -62 4 -73 2 -97 -19z m286 -173 c60 -16
118 -31 226 -62 81 -22 177 -59 278 -105 34 -15 64 -28 66 -28 2 0 51 -27 107
-61 120 -70 210 -140 273 -211 l46 -50 0 -984 c0 -932 -1 -983 -17 -977 -10 3
-30 18 -44 33 -95 100 -373 256 -534 299 -16 5 -41 13 -55 19 -24 9 -70 22
-205 55 -160 40 -196 47 -228 47 -73 0 -67 -99 -67 1026 l0 1014 47 0 c26 0
74 -7 107 -15z m2284 -995 c2 -1126 9 -1030 -71 -1030 -36 0 -104 -14 -222
-45 -27 -8 -79 -21 -115 -30 -36 -9 -80 -23 -98 -31 -18 -8 -39 -14 -47 -14
-8 0 -31 -7 -52 -16 -21 -9 -51 -23 -68 -30 -150 -64 -272 -139 -389 -236 -38
-32 -72 -58 -77 -58 -5 0 -9 429 -9 990 l0 990 52 51 c52 51 188 159 218 172
8 4 29 16 45 26 36 23 172 92 240 121 153 66 465 150 545 147 l45 -2 3 -1005z"/>
</g>
</svg>
